<svg id="图层_1" data-name="图层 1" xmlns="http://www.w3.org/2000/svg" viewBox="0 0 1830.06 1605.66"><defs><style>.cls-1{fill:#9f8c86;}.cls-2{fill:#ece1db;}.cls-3{fill:#8e9493;}.cls-4{fill:#c7c8c7;}.cls-5{fill:#737475;}.cls-6{fill:#485c47;}.cls-7,.cls-9{fill:#354b45;}.cls-8{font-size:72px;fill:#231916;}.cls-8,.cls-9{font-family:MicrosoftYaHei, Microsoft YaHei;}.cls-9{font-size:60px;}.cls-10{fill:#fff;opacity:0.3;}</style></defs><title>money</title><rect class="cls-1" x="562.15" y="559.06" width="628.38" height="1335.13" transform="translate(-723.6 1450.38) rotate(-68.96)"/><rect class="cls-2" x="577.47" y="554.24" width="628.38" height="1335.13" transform="translate(-709.27 1461.59) rotate(-68.96)"/><rect class="cls-3" x="911.87" y="379.5" width="94" height="1335.13" transform="translate(-503.11 1412.3) rotate(-68.96)"/><rect class="cls-3" x="770.75" y="740.86" width="94" height="1335.13" transform="translate(-930.84 1512.22) rotate(-68.96)"/><ellipse class="cls-4" cx="861.8" cy="1210.32" rx="270" ry="222" transform="translate(-717.7 1426.34) rotate(-68.96)"/><path class="cls-5" d="M531.93,1083.45c-12.89,33.5-51.34,49.9-85.87,36.61s-52.09-51.21-39.2-84.72,51.33-49.9,85.86-36.61S544.81,1049.94,531.93,1083.45Z" transform="translate(-140.48 -153.85)"/><path class="cls-6" d="M1361.68,1410.92c-9.52,24.74-36.88,37.25-61.1,27.93s-36.16-36.93-26.64-61.67,36.87-37.25,61.1-27.93S1371.19,1386.18,1361.68,1410.92Z" transform="translate(-140.48 -153.85)"/><path class="cls-7" d="M707.61,1222.81c5.24-10.38,5.43-21.74,12.85-31.24a61.87,61.87,0,0,1,23.07-18.21c18.73-8.89,30.94-18.1,43.83-35.36,17.95-24,25.33-49.65,49.39-69.9,15.94-13.41,34.14-18.07,53.55-19.58,27.23-2.11,48.07-11.56,74.62,1.12,20.6,9.83,46.68,28.66,52.79,51.55,6.94,26,.57,52-.43,77.6-1.11,28.14,10,54.19,4.83,82.21-2.07,11.18-7.06,17.13-13.07,25.54-6.4,9-5.18,17.56-6,28.25-1.45,18.78-3.13,43.75-15.22,57.41,9.46,1.52,8.49,10,4,14.81s-17.89,8-24.39,7.79c-22.62-.72-12.1-28-23.18-38-9.85,3-5.81,12.91-9.82,19.66-4.29,7.21-14.14,9.3-17.43,17.94-5.15,13.54,13.07,30.88,3.73,43.22-8.55,11.28-34.82,15.87-48.06,19.25-19,4.87-32.95,6.32-52.49,1.84-37.9-8.69-83.83-15.79-115.75-40.77-35.15-27.51-60.88-79.64-47.48-124.63,8.77-29.41,35.08-28.46,60.63-23.77,12,2.19,22.68,5.49,35,3.55,12.05-1.91,16-11.14,19.49-23.18-13.52-11.67-33.36,1.46-48.89,2.17-6.56.3-20.87-.54-22.55-8.35-1.56-7.3,8.46-16.38,6.24-24.44" transform="translate(-140.48 -153.85)"/><text class="cls-8" transform="translate(173.67 1048.91) rotate(21.04)">100</text><text class="cls-9" transform="translate(1086 1346.77) rotate(21.04)">100</text><path class="cls-10" d="M685.19,1321.39c8.64-9.39,17.3-18.76,26.18-27.92,10.76-11.11,22.38-21.21,34-31.47,47-41.68,94.44-82.85,142.91-122.79,48.85-40.25,98.7-79.32,150-116.36q19.37-14,39-27.57c11.89-8.22,23.41-16.87,35.23-25.17L768.89,838q-3.66,3.48-7.26,7c-32.46,31.84-62.13,66.31-93.55,99.14-17.83,18.62-37,35.85-56.09,53.15q-35.76,32.38-72.16,64c-96.29,84-195,165.17-290.42,250.11l327.5,126C614,1399.68,649.39,1360.29,685.19,1321.39Z" transform="translate(-140.48 -153.85)"/><path class="cls-10" d="M1046.15,1547.64c33.85-33.54,67.93-66.88,102.59-99.58,43-40.56,89.75-77.21,137.1-112.51,76.58-57.07,156.13-110.41,230.91-169.86l13.43-34.93-89.88-34.57c-3.93,2.38-7.93,4.66-11.94,6.88-10.85,6-21.76,11.71-32.26,18.3q-17.52,11-35,22.05c-46,29.11-91.65,58.69-136.26,89.84-44.88,31.34-89.79,63.68-130.93,99.87-32.05,28.19-62.17,58.53-92.5,88.52-32.16,31.8-64.23,63.8-98.17,93.71-12.74,11.23-25.74,22.25-39.39,32.38l131.47,50.56Q1020.66,1572.88,1046.15,1547.64Z" transform="translate(-140.48 -153.85)"/><rect class="cls-1" x="665.66" y="437.04" width="628.38" height="1335.13" transform="translate(-614.55 1208.42) rotate(-58.48)"/><rect class="cls-2" x="681.6" y="435.09" width="628.38" height="1335.13" transform="translate(-605.28 1221.08) rotate(-58.48)"/><rect class="cls-3" x="1046.68" y="275.51" width="94" height="1335.13" transform="translate(-422.54 1228.38) rotate(-58.48)"/><rect class="cls-3" x="842.14" y="605.14" width="94" height="1335.13" transform="matrix(0.52, -0.85, 0.85, 0.52, -801.12, 1211.31)"/><ellipse class="cls-4" cx="968.52" cy="1085.93" rx="270" ry="222" transform="matrix(0.52, -0.85, 0.85, 0.52, -604.03, 1189.85)"/><path class="cls-5" d="M667.25,901.13c-18.77,30.6-59.56,39.72-91.1,20.37S534.26,861.66,553,831.06s59.55-39.72,91.09-20.37S686,870.53,667.25,901.13Z" transform="translate(-140.48 -153.85)"/><path class="cls-6" d="M1423.53,1374.17c-13.86,22.59-43,29.91-65.16,16.34s-28.83-42.9-15-65.49,43-29.92,65.16-16.35S1437.39,1351.57,1423.53,1374.17Z" transform="translate(-140.48 -153.85)"/><path class="cls-7" d="M814.63,1070.14c7-9.25,9.29-20.39,18.33-28.38a61.8,61.8,0,0,1,26-13.7c20-5.33,33.72-12.17,49.54-26.79,22-20.35,33.94-44.21,61.29-59.74C987.89,931.24,1006.63,930,1026,932c27.16,2.87,49.37-2.62,73.18,14.68,18.46,13.42,40.67,36.68,42.52,60.3,2.1,26.8-8.91,51.27-14.55,76.22-6.21,27.47,0,55.11-10.22,81.72-4.06,10.62-10.06,15.56-17.49,22.73-7.93,7.67-8.3,16.33-11.06,26.69-4.84,18.2-11,42.45-25.41,53.68,9,3.22,6.52,11.39,1.22,15.29s-19,4.61-25.4,3.22c-22.12-4.83-6.81-29.71-15.88-41.58-10.23,1.12-8.06,11.63-13.24,17.54-5.52,6.3-15.6,6.56-20.4,14.46-7.53,12.38,7.23,32.75-4.2,43.18-10.46,9.54-37.13,9.27-50.77,10.18-19.6,1.32-33.54.22-51.94-7.74-35.68-15.45-79.55-30.79-106.39-61.17C746.4,1228,730.59,1172,752,1130.24c14-27.33,39.67-21.6,63.94-12.34,11.36,4.33,21.3,9.53,33.75,9.86,12.2.32,17.74-8,23.38-19.25-11.17-13.93-33.07-4.63-48.46-6.76-6.51-.9-20.43-4.34-20.66-12.32-.21-7.46,11.3-14.57,10.58-22.89" transform="translate(-140.48 -153.85)"/><text class="cls-8" transform="translate(290.91 824.89) rotate(31.53)">100</text><text class="cls-9" transform="translate(1133.77 1283.84) rotate(31.53)">100</text><path class="cls-10" d="M774.65,1163c10.2-7.66,20.42-15.3,30.81-22.69,12.61-9,25.87-16.79,39.12-24.77,53.79-32.43,107.94-64.28,162.88-94.73,55.36-30.68,111.48-60,168.7-87.1q21.58-10.22,43.35-20c13.19-5.92,26.09-12.33,39.23-18.34L944.94,702.88q-4.23,2.76-8.42,5.58c-37.71,25.39-73.16,53.89-110,80.45C805.57,804,783.6,817.43,761.66,831q-41.05,25.34-82.6,49.84c-110,65-221.79,126.92-331.1,193.07l299.1,183.47C690.4,1227,732.36,1194.73,774.65,1163Z" transform="translate(-140.48 -153.85)"/><path class="cls-10" d="M1088.39,1451.17c39.39-26.82,79-53.4,119-79.25,49.66-32.05,102.31-59.58,155.29-85.67,85.69-42.18,173.62-80.14,258-125l19.57-31.9L1558.13,1079c-4.3,1.62-8.64,3.14-13,4.59-11.75,3.91-23.52,7.55-35,12.12q-19.23,7.62-38.43,15.31c-50.5,20.26-100.81,41-150.34,63.54-49.84,22.64-99.88,46.26-146.93,74.36-36.64,21.89-71.78,46.24-107.06,70.21-37.41,25.42-74.77,51-113.59,74.27-14.57,8.73-29.36,17.19-44.63,24.67l120.07,73.65Q1058.73,1471.35,1088.39,1451.17Z" transform="translate(-140.48 -153.85)"/><rect class="cls-1" x="772.63" y="360.28" width="628.38" height="1335.13" transform="translate(-541.51 1028.79) rotate(-49.34)"/><rect class="cls-2" x="788.68" y="360.88" width="628.38" height="1335.13" transform="translate(-536.37 1041.17) rotate(-49.34)"/><rect class="cls-3" x="1177.85" y="218.86" width="94" height="1335.13" transform="translate(-386.13 1084.22) rotate(-49.34)"/><rect class="cls-3" x="923.58" y="511.84" width="94" height="1335.13" transform="translate(-696.99 993.42) rotate(-49.34)"/><ellipse class="cls-4" cx="1078.6" cy="1007.6" rx="270" ry="222" transform="translate(-529.01 1015.5) rotate(-49.34)"/><path class="cls-5" d="M810.48,777.33c-23.39,27.23-65.11,29.76-93.18,5.65s-31.86-65.73-8.47-93,65.1-29.77,93.17-5.66S833.87,750.09,810.48,777.33Z" transform="translate(-140.48 -153.85)"/><path class="cls-6" d="M1482.09,1364.41c-17.27,20.11-47.24,22.7-66.93,5.79s-21.65-46.93-4.38-67,47.24-22.7,66.93-5.79S1499.36,1344.29,1482.09,1364.41Z" transform="translate(-140.48 -153.85)"/><path class="cls-7" d="M929.17,967.59c8.42-8,12.41-18.66,22.59-25.12a62,62,0,0,1,27.85-9.4c20.62-2.08,35.21-6.66,53.16-18.58,25-16.6,40.53-38.27,70-49.26,19.52-7.28,38.22-5.56,57-.46,26.36,7.14,49.16,5.24,69.92,26.1,16.1,16.19,34.34,42.68,32.41,66.29-2.18,26.8-16.94,49.21-26.47,72.95-10.48,26.13-8.77,54.4-23.05,79.06-5.7,9.83-12.4,13.76-20.88,19.67-9,6.3-10.78,14.8-15.15,24.59-7.68,17.2-17.64,40.16-33.62,49,8.41,4.6,4.64,12.27-1.22,15.29s-19.54,1.52-25.59-.86c-21.07-8.28-2-30.42-9.07-43.57-10.28-.52-9.81,10.2-15.86,15.21-6.45,5.35-16.44,4-22.44,11-9.39,11,1.94,33.48-11,42-11.84,7.75-38.13,3.26-51.73,2-19.57-1.82-33.15-5.12-50.06-15.9-32.78-20.91-73.66-43-95.34-77.27-23.87-37.72-30.6-95.45-2.87-133.33,18.13-24.76,42.6-15,65.09-2,10.52,6.08,19.52,12.79,31.76,15.09,12,2.25,18.79-5.13,26.14-15.28-8.82-15.54-31.92-9.83-46.78-14.38-6.28-1.92-19.48-7.52-18.44-15.44,1-7.4,13.47-12.59,14.08-20.92" transform="translate(-140.48 -153.85)"/><text class="cls-8" transform="matrix(0.76, 0.65, -0.65, 0.76, 424.87, 662.72)">100</text><text class="cls-9" transform="matrix(0.76, 0.65, -0.65, 0.76, 1184.2, 1249.63)">100</text><path class="cls-10" d="M875,1052.92c11.29-5.94,22.59-11.86,34-17.51,13.87-6.86,28.2-12.46,42.55-18.25,58.26-23.47,116.77-46.33,175.85-67.67,59.53-21.51,119.6-41.57,180.39-59.22q22.92-6.66,46-12.88c14-3.75,27.71-8,41.64-11.88L1116.12,625.66q-4.62,2.05-9.2,4.18c-41.27,19.08-80.79,41.6-121.41,62-23,11.56-46.87,21.36-70.68,31.24q-44.55,18.48-89.47,36.09c-118.9,46.75-239.11,90.1-357.54,138.07L734,1125.81C781.61,1102.76,828.17,1077.54,875,1052.92Z" transform="translate(-140.48 -153.85)"/><path class="cls-10" d="M1139,1387.24c43.15-20.23,86.44-40.19,130.08-59.35,54.12-23.77,110.46-42.6,166.92-59.94,91.29-28,184.14-51.57,274.53-82.46l24.39-28.4-73.05-62.74c-4.51.92-9,1.73-13.57,2.47-12.22,2-24.42,3.72-36.52,6.4q-20.19,4.48-40.37,9c-53.07,12-106,24.5-158.53,38.86-52.79,14.45-105.95,29.83-156.86,50.1-39.65,15.8-78.21,34.26-116.85,52.33-41,19.16-81.93,38.52-123.94,55.3-15.77,6.31-31.72,12.31-48,17.27l106.85,91.78Q1106.48,1402.46,1139,1387.24Z" transform="translate(-140.48 -153.85)"/><rect class="cls-1" x="841.39" y="290.95" width="628.38" height="1335.13" transform="translate(-483.52 895.55) rotate(-43.15)"/><rect class="cls-2" x="857.28" y="293.28" width="628.38" height="1335.13" transform="translate(-480.82 907.05) rotate(-43.15)"/><rect class="cls-3" x="1261.07" y="165.26" width="94" height="1335.13" transform="translate(-356.34 965.85) rotate(-43.15)"/><rect class="cls-3" x="976.66" y="429.08" width="94" height="1335.13" transform="translate(-613.66 842.69) rotate(-43.15)"/><ellipse class="cls-4" cx="1149.59" cy="937.5" rx="270" ry="222" transform="translate(-470.77 885.78) rotate(-43.15)"/><path class="cls-5" d="M907.9,679.63c-26.2,24.55-67.94,22.57-93.25-4.43s-24.58-68.79,1.61-93.34,67.94-22.56,93.24,4.44S934.09,655.08,907.9,679.63Z" transform="translate(-140.48 -153.85)"/><path class="cls-6" d="M1512.21,1335.78c-19.34,18.13-49.41,17.47-67.16-1.47s-16.46-49,2.88-67.12,49.41-17.47,67.16,1.47S1531.55,1317.65,1512.21,1335.78Z" transform="translate(-140.48 -153.85)"/><path class="cls-7" d="M1005.35,881.59c9.24-7.05,14.36-17.2,25.18-22.52a62,62,0,0,1,28.69-6.35c20.73.16,35.73-2.81,54.86-12.73,26.62-13.81,44.42-33.67,74.9-41.42,20.19-5.13,38.6-1.4,56.73,5.7,25.43,10,48.31,10.52,66.69,33.5,14.26,17.82,29.53,46.13,25.07,69.39-5.06,26.41-22.16,47.1-34.19,69.67-13.25,24.85-14.59,53.14-31.46,76.11-6.72,9.16-13.81,12.34-22.87,17.3-9.68,5.29-12.32,13.55-17.72,22.81-9.49,16.27-21.87,38-38.71,45.06,7.86,5.48,3.28,12.7-2.86,15.06s-19.59-.59-25.35-3.61c-20.06-10.5,1.29-30.45-4.32-44.3-10.16-1.62-10.85,9.09-17.41,13.42-7,4.62-16.77,2.21-23.5,8.56-10.53,9.94-1.68,33.49-15.46,40.52-12.61,6.44-38.26-.87-51.65-3.59-19.26-3.92-32.4-8.66-48.05-21.21-30.33-24.33-68.58-50.72-86.44-87.11C897.82,1015.77,897.36,957.65,929,923c20.7-22.66,44-10.35,64.93,5,9.8,7.18,18,14.82,29.94,18.43,11.68,3.53,19.24-3.07,27.64-12.38-7.09-16.39-30.67-13.21-44.95-19.33-6-2.59-18.56-9.59-16.66-17.34,1.76-7.25,14.74-11.07,16.25-19.29" transform="translate(-140.48 -153.85)"/><text class="cls-8" transform="matrix(0.68, 0.73, -0.73, 0.68, 519.43, 538.28)">100</text><text class="cls-9" transform="matrix(0.68, 0.73, -0.73, 0.68, 1210.98, 1203.72)">100</text><path class="cls-10" d="M942.24,960.57c11.87-4.68,23.74-9.35,35.72-13.73,14.53-5.32,29.38-9.35,44.27-13.55,60.45-17,121.09-33.45,182.13-48.29,61.5-15,123.39-28.42,185.72-39.4q23.52-4.15,47.11-7.84c14.28-2.22,28.42-5,42.68-7.32L1228.12,561.85q-4.81,1.54-9.6,3.15c-43.08,14.53-84.8,32.64-127.38,48.5-24.16,9-48.91,16.17-73.64,23.42q-46.29,13.58-92.84,26.23c-123.25,33.64-247.45,63.77-370.36,98.66l240,256C844.06,1000.05,893.07,980,942.24,960.57Z" transform="translate(-140.48 -153.85)"/><path class="cls-10" d="M1168.63,1321.44c45.08-15.46,90.28-30.62,135.73-45,56.36-17.79,114.41-30.42,172.41-41.57,93.79-18,188.63-31.39,281.83-52.35l27.31-25.59-65.85-70.26c-4.58.42-9.17.74-13.76,1-12.37.67-24.68,1.06-37,2.42q-20.55,2.28-41.11,4.61c-54,6.19-108.06,12.92-161.79,21.53-54.05,8.67-108.56,18.22-161.35,32.88-41.12,11.42-81.45,25.61-121.82,39.4-42.8,14.62-85.6,29.45-129.18,41.6-16.37,4.57-32.86,8.82-49.56,12l96.32,102.77Q1134.7,1333.07,1168.63,1321.44Z" transform="translate(-140.48 -153.85)"/><rect class="cls-1" x="995.89" y="211.64" width="628.38" height="1335.13" transform="translate(-407.31 777.16) rotate(-35.75)"/><rect class="cls-2" x="1011.35" y="216" width="628.38" height="1335.13" transform="translate(-406.94 787.02) rotate(-35.75)"/><rect class="cls-3" x="1430.48" y="106.63" width="94" height="1335.13" transform="translate(-314.42 855.18) rotate(-35.75)"/><rect class="cls-3" x="1114.47" y="331.64" width="94" height="1335.13" transform="translate(-505.41 712.95) rotate(-35.75)"/><ellipse class="cls-4" cx="1306.84" cy="857.59" rx="270" ry="222" transform="translate(-395.29 771.2) rotate(-35.75)"/><path class="cls-5" d="M1100.36,570.75c-29.13,21-70.28,13.63-91.89-16.4S992.94,483,1022.08,462s70.28-13.63,91.9,16.4S1129.5,549.78,1100.36,570.75Z" transform="translate(-140.48 -153.85)"/><path class="cls-6" d="M1615.17,1299.25c-21.52,15.48-51.25,11-66.42-10.11s-10-50.7,11.5-66.18,51.25-11,66.42,10.1S1636.68,1283.76,1615.17,1299.25Z" transform="translate(-140.48 -153.85)"/><path class="cls-7" d="M1171,783.58c10.07-5.81,16.45-15.21,27.87-19.1a61.89,61.89,0,0,1,29.27-2.59c20.54,2.82,35.8,1.81,56-5.57,28.18-10.26,48.39-27.67,79.61-31.43,20.69-2.49,38.46,3.59,55.53,13,23.93,13.14,46.55,16.65,61.82,41.8,11.84,19.52,23.34,49.55,15.92,72.05-8.42,25.53-28,43.85-42.87,64.69-16.34,22.93-21.31,50.81-41,71.42-7.85,8.22-15.29,10.46-24.92,14.21-10.27,4-14,11.86-20.51,20.34-11.5,14.91-26.58,34.89-44.18,39.7,7.08,6.45,1.62,13-4.78,14.57s-19.35-3.11-24.67-6.84c-18.54-13,5.2-30,1.42-44.49-9.87-2.92-11.93,7.61-19,11.06-7.53,3.68-16.92,0-24.41,5.46-11.72,8.51-6,33-20.55,38.2-13.33,4.76-37.83-5.79-50.76-10.22-18.59-6.36-31-12.76-44.91-27.21-27-28-61.49-59.13-74.51-97.52-14.34-42.27-7.31-100,28.55-130.27,23.44-19.81,44.94-4.59,63.74,13.32,8.8,8.39,16,17,27.32,22.13,11.13,5,19.47-.56,29-8.71-4.93-17.17-28.72-17-42.09-25-5.66-3.35-17.17-11.9-14.29-19.35,2.68-7,16-9.07,18.6-17" transform="translate(-140.48 -153.85)"/><text class="cls-8" transform="matrix(0.58, 0.81, -0.81, 0.58, 712.34, 397.43)">100</text><text class="cls-9" transform="matrix(0.58, 0.81, -0.81, 0.58, 1312.45, 1146.38)">100</text><path class="cls-10" d="M1098.25,853.78c12.37-3.12,24.75-6.22,37.19-9,15.09-3.4,30.34-5.49,45.65-7.74,62.14-9.12,124.39-17.58,186.82-24.44,62.92-6.91,126-12.29,189.26-15.16q23.85-1.08,47.72-1.71c14.45-.36,28.83-1.29,43.27-1.76L1433.09,495.18q-5,.92-9.93,1.89c-44.59,8.86-88.3,21.45-132.56,31.7-25.12,5.81-50.59,9.74-76,13.74q-47.65,7.5-95.45,14.06c-126.55,17.49-253.59,31.37-380,50.15l205,284.78C995.81,880.29,1047,866.72,1098.25,853.78Z" transform="translate(-140.48 -153.85)"/><path class="cls-10" d="M1276.29,1240.79c46.7-9.52,93.47-18.74,140.39-27.12,58.19-10.38,117.38-15.43,176.33-19,95.33-5.8,191.1-6.84,286.22-15.62l30.38-21.87L1853.35,1079c-4.59-.17-9.19-.45-13.77-.79-12.35-.93-24.61-2.13-37-2.36q-20.68-.39-41.36-.72c-54.4-.83-108.83-1.11-163.22.52-54.71,1.63-110,4.08-164.24,11.82-42.25,6-84.07,14.92-125.88,23.4-44.32,9-88.68,18.18-133.46,24.62-16.82,2.42-33.72,4.51-50.69,5.51L1206,1255.33Q1241.14,1247.94,1276.29,1240.79Z" transform="translate(-140.48 -153.85)"/></svg>